<svg width="224" height="30" viewBox="0 0 224 30" fill="none" xmlns="http://www.w3.org/2000/svg">
<path d="M0.32 14.92C0.32 12.1467 0.92 9.68 2.12 7.52C3.32 5.33333 4.98667 3.64 7.12 2.44C9.28 1.21333 11.72 0.599998 14.44 0.599998C17.7733 0.599998 20.6267 1.48 23 3.24C25.3733 5 26.96 7.4 27.76 10.44H20.24C19.68 9.26667 18.88 8.37333 17.84 7.76C16.8267 7.14667 15.6667 6.84 14.36 6.84C12.2533 6.84 10.5467 7.57333 9.24 9.04C7.93333 10.5067 7.28 12.4667 7.28 14.92C7.28 17.3733 7.93333 19.3333 9.24 20.8C10.5467 22.2667 12.2533 23 14.36 23C15.6667 23 16.8267 22.6933 17.84 22.08C18.88 21.4667 19.68 20.5733 20.24 19.4H27.76C26.96 22.44 25.3733 24.84 23 26.6C20.6267 28.3333 17.7733 29.2 14.44 29.2C11.72 29.2 9.28 28.6 7.12 27.4C4.98667 26.1733 3.32 24.48 2.12 22.32C0.92 20.16 0.32 17.6933 0.32 14.92ZM42.1088 29.32C39.9221 29.32 37.9488 28.8533 36.1888 27.92C34.4554 26.9867 33.0821 25.6533 32.0688 23.92C31.0821 22.1867 30.5888 20.16 30.5888 17.84C30.5888 15.5467 31.0954 13.5333 32.1087 11.8C33.1221 10.04 34.5088 8.69333 36.2688 7.76C38.0288 6.82667 40.0021 6.36 42.1888 6.36C44.3754 6.36 46.3488 6.82667 48.1088 7.76C49.8688 8.69333 51.2554 10.04 52.2688 11.8C53.2821 13.5333 53.7888 15.5467 53.7888 17.84C53.7888 20.1333 53.2688 22.16 52.2288 23.92C51.2154 25.6533 49.8154 26.9867 48.0288 27.92C46.2688 28.8533 44.2954 29.32 42.1088 29.32ZM42.1088 23.4C43.4154 23.4 44.5221 22.92 45.4288 21.96C46.3621 21 46.8288 19.6267 46.8288 17.84C46.8288 16.0533 46.3754 14.68 45.4688 13.72C44.5888 12.76 43.4954 12.28 42.1888 12.28C40.8554 12.28 39.7488 12.76 38.8688 13.72C37.9888 14.6533 37.5488 16.0267 37.5488 17.84C37.5488 19.6267 37.9754 21 38.8288 21.96C39.7088 22.92 40.8021 23.4 42.1088 23.4ZM71.0175 6.44C73.6308 6.44 75.7108 7.29333 77.2575 9C78.8308 10.68 79.6175 13 79.6175 15.96V29H72.8175V16.88C72.8175 15.3867 72.4308 14.2267 71.6575 13.4C70.8842 12.5733 69.8442 12.16 68.5375 12.16C67.2308 12.16 66.1908 12.5733 65.4175 13.4C64.6442 14.2267 64.2575 15.3867 64.2575 16.88V29H57.4175V6.68H64.2575V9.64C64.9508 8.65333 65.8842 7.88 67.0575 7.32C68.2308 6.73333 69.5508 6.44 71.0175 6.44ZM96.8106 23.2V29H93.3306C90.8506 29 88.9173 28.4 87.5306 27.2C86.144 25.9733 85.4506 23.9867 85.4506 21.24V12.36H82.7306V6.68H85.4506V1.24H92.2906V6.68H96.7706V12.36H92.2906V21.32C92.2906 21.9867 92.4506 22.4667 92.7706 22.76C93.0906 23.0533 93.624 23.2 94.3706 23.2H96.8106ZM99.2606 17.8C99.2606 15.5067 99.6873 13.4933 100.541 11.76C101.421 10.0267 102.607 8.69333 104.101 7.76C105.594 6.82667 107.261 6.36 109.101 6.36C110.674 6.36 112.047 6.68 113.221 7.32C114.421 7.96 115.341 8.8 115.981 9.84V6.68H122.821V29H115.981V25.84C115.314 26.88 114.381 27.72 113.181 28.36C112.007 29 110.634 29.32 109.061 29.32C107.247 29.32 105.594 28.8533 104.101 27.92C102.607 26.96 101.421 25.6133 100.541 23.88C99.6873 22.12 99.2606 20.0933 99.2606 17.8ZM115.981 17.84C115.981 16.1333 115.501 14.7867 114.541 13.8C113.607 12.8133 112.461 12.32 111.101 12.32C109.741 12.32 108.581 12.8133 107.621 13.8C106.687 14.76 106.221 16.0933 106.221 17.8C106.221 19.5067 106.687 20.8667 107.621 21.88C108.581 22.8667 109.741 23.36 111.101 23.36C112.461 23.36 113.607 22.8667 114.541 21.88C115.501 20.8933 115.981 19.5467 115.981 17.84ZM126.409 17.84C126.409 15.52 126.876 13.4933 127.809 11.76C128.769 10.0267 130.089 8.69333 131.769 7.76C133.476 6.82667 135.422 6.36 137.609 6.36C140.409 6.36 142.742 7.09333 144.609 8.56C146.502 10.0267 147.742 12.0933 148.329 14.76H141.049C140.436 13.0533 139.249 12.2 137.489 12.2C136.236 12.2 135.236 12.6933 134.489 13.68C133.742 14.64 133.369 16.0267 133.369 17.84C133.369 19.6533 133.742 21.0533 134.489 22.04C135.236 23 136.236 23.48 137.489 23.48C139.249 23.48 140.436 22.6267 141.049 20.92H148.329C147.742 23.5333 146.502 25.5867 144.609 27.08C142.716 28.5733 140.382 29.32 137.609 29.32C135.422 29.32 133.476 28.8533 131.769 27.92C130.089 26.9867 128.769 25.6533 127.809 23.92C126.876 22.1867 126.409 20.16 126.409 17.84ZM164.428 23.2V29H160.948C158.468 29 156.534 28.4 155.148 27.2C153.761 25.9733 153.068 23.9867 153.068 21.24V12.36H150.348V6.68H153.068V1.24H159.908V6.68H164.388V12.36H159.908V21.32C159.908 21.9867 160.068 22.4667 160.388 22.76C160.708 23.0533 161.241 23.2 161.988 23.2H164.428ZM183.434 0.919999V17.72C183.434 19.4 183.848 20.6933 184.674 21.6C185.501 22.5067 186.714 22.96 188.314 22.96C189.914 22.96 191.141 22.5067 191.994 21.6C192.848 20.6933 193.274 19.4 193.274 17.72V0.919999H200.114V17.68C200.114 20.1867 199.581 22.3067 198.514 24.04C197.448 25.7733 196.008 27.08 194.194 27.96C192.408 28.84 190.408 29.28 188.194 29.28C185.981 29.28 183.994 28.8533 182.234 28C180.501 27.12 179.128 25.8133 178.114 24.08C177.101 22.32 176.594 20.1867 176.594 17.68V0.919999H183.434ZM213.998 29.32C212.051 29.32 210.318 28.9867 208.798 28.32C207.278 27.6533 206.078 26.7467 205.198 25.6C204.318 24.4267 203.824 23.12 203.718 21.68H210.478C210.558 22.4533 210.918 23.08 211.558 23.56C212.198 24.04 212.984 24.28 213.918 24.28C214.771 24.28 215.424 24.12 215.878 23.8C216.358 23.4533 216.598 23.0133 216.598 22.48C216.598 21.84 216.264 21.3733 215.598 21.08C214.931 20.76 213.851 20.4133 212.358 20.04C210.758 19.6667 209.424 19.28 208.358 18.88C207.291 18.4533 206.371 17.8 205.598 16.92C204.824 16.0133 204.438 14.8 204.438 13.28C204.438 12 204.784 10.84 205.478 9.8C206.198 8.73333 207.238 7.89333 208.598 7.28C209.984 6.66666 211.624 6.36 213.518 6.36C216.318 6.36 218.518 7.05333 220.118 8.44C221.744 9.82667 222.678 11.6667 222.918 13.96H216.598C216.491 13.1867 216.144 12.5733 215.558 12.12C214.998 11.6667 214.251 11.44 213.318 11.44C212.518 11.44 211.904 11.6 211.478 11.92C211.051 12.2133 210.838 12.6267 210.838 13.16C210.838 13.8 211.171 14.28 211.838 14.6C212.531 14.92 213.598 15.24 215.038 15.56C216.691 15.9867 218.038 16.4133 219.078 16.84C220.118 17.24 221.024 17.9067 221.798 18.84C222.598 19.7467 223.011 20.9733 223.038 22.52C223.038 23.8267 222.664 25 221.918 26.04C221.198 27.0533 220.144 27.8533 218.758 28.44C217.398 29.0267 215.811 29.32 213.998 29.32Z" fill="black"/>
</svg>
